<?xml version="1.0" encoding="UTF-8" standalone="no"?>
<!DOCTYPE svg PUBLIC "-//W3C//DTD SVG 1.1//EN"
 "http://www.w3.org/Graphics/SVG/1.1/DTD/svg11.dtd">
<!-- Generated by graphviz version 13.1.1 (20250719.2154)
 -->
<!-- Title: spec_dependencies Pages: 1 -->
<svg width="5597pt" height="98pt"
 viewBox="0.00 0.00 5597.00 98.00" xmlns="http://www.w3.org/2000/svg" xmlns:xlink="http://www.w3.org/1999/xlink">
<g id="graph0" class="graph" transform="scale(1 1) rotate(0) translate(4 94)">
<title>spec_dependencies</title>
<polygon fill="white" stroke="none" points="-4,4 -4,-94 5592.75,-94 5592.75,4 -4,4"/>
<!-- ch05&#45;component&#45;storage -->
<g id="node1" class="node">
<title>ch05&#45;component&#45;storage</title>
<polygon fill="none" stroke="black" points="1078.25,-36 830.5,-36 830.5,0 1078.25,0 1078.25,-36"/>
<text xml:space="preserve" text-anchor="middle" x="954.38" y="-21.43" font-family="Helvetica,sans-Serif" font-size="11.00">第 5 章：Component 与 Storage — 数据与内存</text>
<text xml:space="preserve" text-anchor="middle" x="954.38" y="-5.67" font-family="Helvetica,sans-Serif" font-size="11.00">[1.5d]</text>
</g>
<!-- ch06&#45;archetype -->
<g id="node20" class="node">
<title>ch06&#45;archetype</title>
<polygon fill="none" stroke="black" points="1343.25,-36 1114.25,-36 1114.25,0 1343.25,0 1343.25,-36"/>
<text xml:space="preserve" text-anchor="middle" x="1228.75" y="-21.43" font-family="Helvetica,sans-Serif" font-size="11.00">第 6 章：Archetype — 组合索引与实体迁移</text>
<text xml:space="preserve" text-anchor="middle" x="1228.75" y="-5.67" font-family="Helvetica,sans-Serif" font-size="11.00">[1d]</text>
</g>
<!-- ch05&#45;component&#45;storage&#45;&gt;ch06&#45;archetype -->
<g id="edge18" class="edge">
<title>ch05&#45;component&#45;storage&#45;&gt;ch06&#45;archetype</title>
<path fill="none" stroke="red" stroke-width="2" d="M1078.41,-18C1086.19,-18 1094.01,-18 1101.8,-18"/>
<polygon fill="red" stroke="red" stroke-width="2" points="1111.54,-18 1101.54,-22.5 1108.98,-18.5 1101.54,-18.5 1101.54,-18 1101.54,-17.5 1108.98,-17.5 1101.54,-13.5 1111.54,-18"/>
</g>
<!-- ch24&#45;diagnostics -->
<g id="node2" class="node">
<title>ch24&#45;diagnostics</title>
<polygon fill="none" stroke="black" points="5154,-36 5030,-36 5030,0 5154,0 5154,-36"/>
<text xml:space="preserve" text-anchor="middle" x="5092" y="-21.43" font-family="Helvetica,sans-Serif" font-size="11.00">第 24 章：诊断与调试</text>
<text xml:space="preserve" text-anchor="middle" x="5092" y="-5.67" font-family="Helvetica,sans-Serif" font-size="11.00">[0.5d]</text>
</g>
<!-- ch25&#45;cross&#45;platform -->
<g id="node10" class="node">
<title>ch25&#45;cross&#45;platform</title>
<polygon fill="none" stroke="black" points="5338.75,-36 5190,-36 5190,0 5338.75,0 5338.75,-36"/>
<text xml:space="preserve" text-anchor="middle" x="5264.38" y="-21.43" font-family="Helvetica,sans-Serif" font-size="11.00">第 25 章：跨平台与 no_std</text>
<text xml:space="preserve" text-anchor="middle" x="5264.38" y="-5.67" font-family="Helvetica,sans-Serif" font-size="11.00">[0.5d]</text>
</g>
<!-- ch24&#45;diagnostics&#45;&gt;ch25&#45;cross&#45;platform -->
<g id="edge10" class="edge">
<title>ch24&#45;diagnostics&#45;&gt;ch25&#45;cross&#45;platform</title>
<path fill="none" stroke="red" stroke-width="2" d="M5154.03,-18C5161.61,-18 5169.47,-18 5177.34,-18"/>
<polygon fill="red" stroke="red" stroke-width="2" points="5187.24,-18 5177.24,-22.5 5184.68,-18.5 5177.24,-18.5 5177.24,-18 5177.24,-17.5 5184.68,-17.5 5177.24,-13.5 5187.24,-18"/>
</g>
<!-- ch22&#45;reflect -->
<g id="node3" class="node">
<title>ch22&#45;reflect</title>
<polygon fill="none" stroke="black" points="4845.25,-36 4632.75,-36 4632.75,0 4845.25,0 4845.25,-36"/>
<text xml:space="preserve" text-anchor="middle" x="4739" y="-21.43" font-family="Helvetica,sans-Serif" font-size="11.00">第 22 章：Reflect — ECS 的运行时镜像</text>
<text xml:space="preserve" text-anchor="middle" x="4739" y="-5.67" font-family="Helvetica,sans-Serif" font-size="11.00">[1d]</text>
</g>
<!-- ch23&#45;concurrency -->
<g id="node25" class="node">
<title>ch23&#45;concurrency</title>
<polygon fill="none" stroke="black" points="4994,-36 4881.25,-36 4881.25,0 4994,0 4994,-36"/>
<text xml:space="preserve" text-anchor="middle" x="4937.62" y="-21.43" font-family="Helvetica,sans-Serif" font-size="11.00">第 23 章：并发模型</text>
<text xml:space="preserve" text-anchor="middle" x="4937.62" y="-5.67" font-family="Helvetica,sans-Serif" font-size="11.00">[1d]</text>
</g>
<!-- ch22&#45;reflect&#45;&gt;ch23&#45;concurrency -->
<g id="edge23" class="edge">
<title>ch22&#45;reflect&#45;&gt;ch23&#45;concurrency</title>
<path fill="none" stroke="red" stroke-width="2" d="M4845.51,-18C4853.33,-18 4861.09,-18 4868.59,-18"/>
<polygon fill="red" stroke="red" stroke-width="2" points="4878.49,-18 4868.49,-22.5 4875.93,-18.5 4868.49,-18.5 4868.49,-18 4868.49,-17.5 4875.93,-17.5 4868.49,-13.5 4878.49,-18"/>
</g>
<!-- ch09&#45;schedule -->
<g id="node4" class="node">
<title>ch09&#45;schedule</title>
<polygon fill="none" stroke="black" points="2091,-36 1865.75,-36 1865.75,0 2091,0 2091,-36"/>
<text xml:space="preserve" text-anchor="middle" x="1978.38" y="-21.43" font-family="Helvetica,sans-Serif" font-size="11.00">第 9 章：Schedule — 系统编排与自动并行</text>
<text xml:space="preserve" text-anchor="middle" x="1978.38" y="-5.67" font-family="Helvetica,sans-Serif" font-size="11.00">[1d]</text>
</g>
<!-- ch10&#45;change&#45;detection -->
<g id="node19" class="node">
<title>ch10&#45;change&#45;detection</title>
<polygon fill="none" stroke="black" points="2313.25,-36 2127,-36 2127,0 2313.25,0 2313.25,-36"/>
<text xml:space="preserve" text-anchor="middle" x="2220.12" y="-21.43" font-family="Helvetica,sans-Serif" font-size="11.00">第 10 章：变更检测 — 零成本追踪</text>
<text xml:space="preserve" text-anchor="middle" x="2220.12" y="-5.67" font-family="Helvetica,sans-Serif" font-size="11.00">[0.5d]</text>
</g>
<!-- ch09&#45;schedule&#45;&gt;ch10&#45;change&#45;detection -->
<g id="edge17" class="edge">
<title>ch09&#45;schedule&#45;&gt;ch10&#45;change&#45;detection</title>
<path fill="none" stroke="red" stroke-width="2" d="M2091.18,-18C2098.86,-18 2106.58,-18 2114.22,-18"/>
<polygon fill="red" stroke="red" stroke-width="2" points="2124.12,-18 2114.12,-22.5 2121.55,-18.5 2114.12,-18.5 2114.12,-18 2114.12,-17.5 2121.55,-17.5 2114.12,-13.5 2124.12,-18"/>
</g>
<!-- ch19&#45;ui -->
<g id="node5" class="node">
<title>ch19&#45;ui</title>
<polygon fill="none" stroke="black" points="4250.5,-36 4146,-36 4146,0 4250.5,0 4250.5,-36"/>
<text xml:space="preserve" text-anchor="middle" x="4198.25" y="-21.43" font-family="Helvetica,sans-Serif" font-size="11.00">第 19 章：UI 系统</text>
<text xml:space="preserve" text-anchor="middle" x="4198.25" y="-5.67" font-family="Helvetica,sans-Serif" font-size="11.00">[0.5d]</text>
</g>
<!-- ch20&#45;pbr -->
<g id="node6" class="node">
<title>ch20&#45;pbr</title>
<polygon fill="none" stroke="black" points="4403,-36 4286.5,-36 4286.5,0 4403,0 4403,-36"/>
<text xml:space="preserve" text-anchor="middle" x="4344.75" y="-21.43" font-family="Helvetica,sans-Serif" font-size="11.00">第 20 章：PBR 渲染</text>
<text xml:space="preserve" text-anchor="middle" x="4344.75" y="-5.67" font-family="Helvetica,sans-Serif" font-size="11.00">[0.5d]</text>
</g>
<!-- ch19&#45;ui&#45;&gt;ch20&#45;pbr -->
<g id="edge6" class="edge">
<title>ch19&#45;ui&#45;&gt;ch20&#45;pbr</title>
<path fill="none" stroke="red" stroke-width="2" d="M4250.6,-18C4258.16,-18 4266.05,-18 4273.91,-18"/>
<polygon fill="red" stroke="red" stroke-width="2" points="4283.73,-18 4273.73,-22.5 4281.17,-18.5 4273.73,-18.5 4273.73,-18 4273.73,-17.5 4281.17,-17.5 4273.73,-13.5 4283.73,-18"/>
</g>
<!-- ch21&#45;animation&#45;scene&#45;text -->
<g id="node7" class="node">
<title>ch21&#45;animation&#45;scene&#45;text</title>
<polygon fill="none" stroke="black" points="4596.75,-36 4439,-36 4439,0 4596.75,0 4596.75,-36"/>
<text xml:space="preserve" text-anchor="middle" x="4517.88" y="-21.43" font-family="Helvetica,sans-Serif" font-size="11.00">第 21 章：动画、场景与文本</text>
<text xml:space="preserve" text-anchor="middle" x="4517.88" y="-5.67" font-family="Helvetica,sans-Serif" font-size="11.00">[0.5d]</text>
</g>
<!-- ch20&#45;pbr&#45;&gt;ch21&#45;animation&#45;scene&#45;text -->
<g id="edge7" class="edge">
<title>ch20&#45;pbr&#45;&gt;ch21&#45;animation&#45;scene&#45;text</title>
<path fill="none" stroke="red" stroke-width="2" d="M4403.21,-18C4410.66,-18 4418.44,-18 4426.27,-18"/>
<polygon fill="red" stroke="red" stroke-width="2" points="4436.15,-18 4426.15,-22.5 4433.59,-18.5 4426.15,-18.5 4426.15,-18 4426.15,-17.5 4433.59,-17.5 4426.15,-13.5 4436.15,-18"/>
</g>
<!-- ch21&#45;animation&#45;scene&#45;text&#45;&gt;ch22&#45;reflect -->
<g id="edge3" class="edge">
<title>ch21&#45;animation&#45;scene&#45;text&#45;&gt;ch22&#45;reflect</title>
<path fill="none" stroke="red" stroke-width="2" d="M4597.06,-18C4604.56,-18 4612.27,-18 4620.05,-18"/>
<polygon fill="red" stroke="red" stroke-width="2" points="4629.85,-18 4619.85,-22.5 4627.28,-18.5 4619.85,-18.5 4619.85,-18 4619.85,-17.5 4627.28,-17.5 4619.85,-13.5 4629.85,-18"/>
</g>
<!-- ch02&#45;app&#45;plugin -->
<g id="node8" class="node">
<title>ch02&#45;app&#45;plugin</title>
<polygon fill="none" stroke="black" points="351.5,-36 181,-36 181,0 351.5,0 351.5,-36"/>
<text xml:space="preserve" text-anchor="middle" x="266.25" y="-21.43" font-family="Helvetica,sans-Serif" font-size="11.00">第 2 章：App、Plugin 与主循环</text>
<text xml:space="preserve" text-anchor="middle" x="266.25" y="-5.67" font-family="Helvetica,sans-Serif" font-size="11.00">[1d]</text>
</g>
<!-- ch03&#45;world -->
<g id="node21" class="node">
<title>ch03&#45;world</title>
<polygon fill="none" stroke="black" points="573.75,-36 387.5,-36 387.5,0 573.75,0 573.75,-36"/>
<text xml:space="preserve" text-anchor="middle" x="480.62" y="-21.43" font-family="Helvetica,sans-Serif" font-size="11.00">第 3 章：World — 一切数据的容器</text>
<text xml:space="preserve" text-anchor="middle" x="480.62" y="-5.67" font-family="Helvetica,sans-Serif" font-size="11.00">[1d]</text>
</g>
<!-- ch02&#45;app&#45;plugin&#45;&gt;ch03&#45;world -->
<g id="edge19" class="edge">
<title>ch02&#45;app&#45;plugin&#45;&gt;ch03&#45;world</title>
<path fill="none" stroke="red" stroke-width="2" d="M351.8,-18C359.46,-18 367.29,-18 375.1,-18"/>
<polygon fill="red" stroke="red" stroke-width="2" points="384.9,-18 374.9,-22.5 382.34,-18.5 374.9,-18.5 374.9,-18 374.9,-17.5 382.34,-17.5 374.9,-13.5 384.9,-18"/>
</g>
<!-- ch26&#45;rust&#45;patterns -->
<g id="node9" class="node">
<title>ch26&#45;rust&#45;patterns</title>
<polygon fill="none" stroke="black" points="5588.75,-36 5374.75,-36 5374.75,0 5588.75,0 5588.75,-36"/>
<text xml:space="preserve" text-anchor="middle" x="5481.75" y="-21.43" font-family="Helvetica,sans-Serif" font-size="11.00">第 26 章：Bevy 中的 Rust 设计模式总结</text>
<text xml:space="preserve" text-anchor="middle" x="5481.75" y="-5.67" font-family="Helvetica,sans-Serif" font-size="11.00">[1d]</text>
</g>
<!-- ch25&#45;cross&#45;platform&#45;&gt;ch26&#45;rust&#45;patterns -->
<g id="edge9" class="edge">
<title>ch25&#45;cross&#45;platform&#45;&gt;ch26&#45;rust&#45;patterns</title>
<path fill="none" stroke="red" stroke-width="2" d="M5339.19,-18C5346.63,-18 5354.3,-18 5362.05,-18"/>
<polygon fill="red" stroke="red" stroke-width="2" points="5371.82,-18 5361.82,-22.5 5369.26,-18.5 5361.82,-18.5 5361.82,-18 5361.82,-17.5 5369.26,-17.5 5361.82,-13.5 5371.82,-18"/>
</g>
<!-- ch12&#45;event&#45;observer -->
<g id="node11" class="node">
<title>ch12&#45;event&#45;observer</title>
<polygon fill="none" stroke="black" points="2868,-36 2570.75,-36 2570.75,0 2868,0 2868,-36"/>
<text xml:space="preserve" text-anchor="middle" x="2719.38" y="-21.43" font-family="Helvetica,sans-Serif" font-size="11.00">第 12 章：Event、Message 与 Observer — 三种通信模型</text>
<text xml:space="preserve" text-anchor="middle" x="2719.38" y="-5.67" font-family="Helvetica,sans-Serif" font-size="11.00">[1d]</text>
</g>
<!-- ch13&#45;relationship -->
<g id="node23" class="node">
<title>ch13&#45;relationship</title>
<polygon fill="none" stroke="black" points="3180.25,-36 2904,-36 2904,0 3180.25,0 3180.25,-36"/>
<text xml:space="preserve" text-anchor="middle" x="3042.12" y="-21.43" font-family="Helvetica,sans-Serif" font-size="11.00">第 13 章：Relationship 与 Hierarchy — 实体间的纽带</text>
<text xml:space="preserve" text-anchor="middle" x="3042.12" y="-5.67" font-family="Helvetica,sans-Serif" font-size="11.00">[0.5d]</text>
</g>
<!-- ch12&#45;event&#45;observer&#45;&gt;ch13&#45;relationship -->
<g id="edge21" class="edge">
<title>ch12&#45;event&#45;observer&#45;&gt;ch13&#45;relationship</title>
<path fill="none" stroke="red" stroke-width="2" d="M2868.08,-18C2875.84,-18 2883.65,-18 2891.43,-18"/>
<polygon fill="red" stroke="red" stroke-width="2" points="2901.17,-18 2891.17,-22.5 2898.61,-18.5 2891.17,-18.5 2891.17,-18 2891.17,-17.5 2898.61,-17.5 2891.17,-13.5 2901.17,-18"/>
</g>
<!-- ch15&#45;transform -->
<g id="node12" class="node">
<title>ch15&#45;transform</title>
<polygon fill="none" stroke="black" points="3645.75,-36 3503,-36 3503,0 3645.75,0 3645.75,-36"/>
<text xml:space="preserve" text-anchor="middle" x="3574.38" y="-21.43" font-family="Helvetica,sans-Serif" font-size="11.00">第 15 章：Transform 系统</text>
<text xml:space="preserve" text-anchor="middle" x="3574.38" y="-5.67" font-family="Helvetica,sans-Serif" font-size="11.00">[0.5d]</text>
</g>
<!-- ch16&#45;asset -->
<g id="node14" class="node">
<title>ch16&#45;asset</title>
<polygon fill="none" stroke="black" points="3802,-36 3681.75,-36 3681.75,0 3802,0 3802,-36"/>
<text xml:space="preserve" text-anchor="middle" x="3741.88" y="-21.43" font-family="Helvetica,sans-Serif" font-size="11.00">第 16 章：Asset 系统</text>
<text xml:space="preserve" text-anchor="middle" x="3741.88" y="-5.67" font-family="Helvetica,sans-Serif" font-size="11.00">[0.5d]</text>
</g>
<!-- ch15&#45;transform&#45;&gt;ch16&#45;asset -->
<g id="edge13" class="edge">
<title>ch15&#45;transform&#45;&gt;ch16&#45;asset</title>
<path fill="none" stroke="red" stroke-width="2" d="M3646.04,-18C3653.68,-18 3661.45,-18 3669.1,-18"/>
<polygon fill="red" stroke="red" stroke-width="2" points="3678.94,-18 3668.94,-22.5 3676.38,-18.5 3668.94,-18.5 3668.94,-18 3668.94,-17.5 3676.38,-17.5 3668.94,-13.5 3678.94,-18"/>
</g>
<!-- ch01&#45;design&#45;philosophy -->
<g id="node13" class="node">
<title>ch01&#45;design&#45;philosophy</title>
<polygon fill="none" stroke="black" points="145,-36 0,-36 0,0 145,0 145,-36"/>
<text xml:space="preserve" text-anchor="middle" x="72.5" y="-21.43" font-family="Helvetica,sans-Serif" font-size="11.00">第 1 章：Bevy 的设计哲学</text>
<text xml:space="preserve" text-anchor="middle" x="72.5" y="-5.67" font-family="Helvetica,sans-Serif" font-size="11.00">[0.5d]</text>
</g>
<!-- ch01&#45;design&#45;philosophy&#45;&gt;ch02&#45;app&#45;plugin -->
<g id="edge8" class="edge">
<title>ch01&#45;design&#45;philosophy&#45;&gt;ch02&#45;app&#45;plugin</title>
<path fill="none" stroke="red" stroke-width="2" d="M145.45,-18C152.89,-18 160.54,-18 168.19,-18"/>
<polygon fill="red" stroke="red" stroke-width="2" points="178.19,-18 168.19,-22.5 175.63,-18.5 168.19,-18.5 168.19,-18 168.19,-17.5 175.63,-17.5 168.19,-13.5 178.19,-18"/>
</g>
<!-- ch17&#45;input -->
<g id="node24" class="node">
<title>ch17&#45;input</title>
<polygon fill="none" stroke="black" points="3955.25,-36 3838,-36 3838,0 3955.25,0 3955.25,-36"/>
<text xml:space="preserve" text-anchor="middle" x="3896.62" y="-21.43" font-family="Helvetica,sans-Serif" font-size="11.00">第 17 章：Input 系统</text>
<text xml:space="preserve" text-anchor="middle" x="3896.62" y="-5.67" font-family="Helvetica,sans-Serif" font-size="11.00">[0.5d]</text>
</g>
<!-- ch16&#45;asset&#45;&gt;ch17&#45;input -->
<g id="edge22" class="edge">
<title>ch16&#45;asset&#45;&gt;ch17&#45;input</title>
<path fill="none" stroke="red" stroke-width="2" d="M3802.37,-18C3809.87,-18 3817.59,-18 3825.23,-18"/>
<polygon fill="red" stroke="red" stroke-width="2" points="3835.11,-18 3825.11,-22.5 3832.55,-18.5 3825.11,-18.5 3825.11,-18 3825.11,-17.5 3832.55,-17.5 3825.11,-13.5 3835.11,-18"/>
</g>
<!-- ch07&#45;query -->
<g id="node15" class="node">
<title>ch07&#45;query</title>
<polygon fill="none" stroke="black" points="1588.75,-36 1379.25,-36 1379.25,0 1588.75,0 1588.75,-36"/>
<text xml:space="preserve" text-anchor="middle" x="1484" y="-21.43" font-family="Helvetica,sans-Serif" font-size="11.00">第 7 章：Query — 高效的数据查询引擎</text>
<text xml:space="preserve" text-anchor="middle" x="1484" y="-5.67" font-family="Helvetica,sans-Serif" font-size="11.00">[1d]</text>
</g>
<!-- ch08&#45;system -->
<g id="node26" class="node">
<title>ch08&#45;system</title>
<polygon fill="none" stroke="black" points="1829.75,-36 1624.75,-36 1624.75,0 1829.75,0 1829.75,-36"/>
<text xml:space="preserve" text-anchor="middle" x="1727.25" y="-21.43" font-family="Helvetica,sans-Serif" font-size="11.00">第 8 章：System — 函数即系统的魔法</text>
<text xml:space="preserve" text-anchor="middle" x="1727.25" y="-5.67" font-family="Helvetica,sans-Serif" font-size="11.00">[1.5d]</text>
</g>
<!-- ch07&#45;query&#45;&gt;ch08&#45;system -->
<g id="edge24" class="edge">
<title>ch07&#45;query&#45;&gt;ch08&#45;system</title>
<path fill="none" stroke="red" stroke-width="2" d="M1589.06,-18C1596.67,-18 1604.37,-18 1612.03,-18"/>
<polygon fill="red" stroke="red" stroke-width="2" points="1622.01,-18 1612.01,-22.5 1619.44,-18.5 1612.01,-18.5 1612.01,-18 1612.01,-17.5 1619.44,-17.5 1612.01,-13.5 1622.01,-18"/>
</g>
<!-- ch18&#45;state -->
<g id="node16" class="node">
<title>ch18&#45;state</title>
<polygon fill="none" stroke="black" points="4110,-36 3991.25,-36 3991.25,0 4110,0 4110,-36"/>
<text xml:space="preserve" text-anchor="middle" x="4050.62" y="-21.43" font-family="Helvetica,sans-Serif" font-size="11.00">第 18 章：State 系统</text>
<text xml:space="preserve" text-anchor="middle" x="4050.62" y="-5.67" font-family="Helvetica,sans-Serif" font-size="11.00">[0.5d]</text>
</g>
<!-- ch18&#45;state&#45;&gt;ch19&#45;ui -->
<g id="edge5" class="edge">
<title>ch18&#45;state&#45;&gt;ch19&#45;ui</title>
<path fill="none" stroke="red" stroke-width="2" d="M4110.44,-18C4118.01,-18 4125.8,-18 4133.45,-18"/>
<polygon fill="red" stroke="red" stroke-width="2" points="4143.28,-18 4133.28,-22.5 4140.72,-18.5 4133.28,-18.5 4133.28,-18 4133.28,-17.5 4140.72,-17.5 4133.28,-13.5 4143.28,-18"/>
</g>
<!-- ch11&#45;commands -->
<g id="node17" class="node">
<title>ch11&#45;commands</title>
<polygon fill="none" stroke="black" points="2534.75,-36 2349.25,-36 2349.25,0 2534.75,0 2534.75,-36"/>
<text xml:space="preserve" text-anchor="middle" x="2442" y="-21.43" font-family="Helvetica,sans-Serif" font-size="11.00">第 11 章：Commands — 延迟执行</text>
<text xml:space="preserve" text-anchor="middle" x="2442" y="-5.67" font-family="Helvetica,sans-Serif" font-size="11.00">[0.5d]</text>
</g>
<!-- ch11&#45;commands&#45;&gt;ch12&#45;event&#45;observer -->
<g id="edge11" class="edge">
<title>ch11&#45;commands&#45;&gt;ch12&#45;event&#45;observer</title>
<path fill="none" stroke="red" stroke-width="2" d="M2535.08,-18C2542.57,-18 2550.26,-18 2558.06,-18"/>
<polygon fill="red" stroke="red" stroke-width="2" points="2567.93,-18 2557.93,-22.5 2565.37,-18.5 2557.93,-18.5 2557.93,-18 2557.93,-17.5 2565.37,-17.5 2557.93,-13.5 2567.93,-18"/>
</g>
<!-- project -->
<g id="node18" class="node">
<title>project</title>
<polygon fill="none" stroke="black" points="105.25,-90 39.75,-90 39.75,-54 105.25,-54 105.25,-90"/>
<text xml:space="preserve" text-anchor="middle" x="72.5" y="-69.42" font-family="Helvetica,sans-Serif" font-size="11.00">Bevy 之书</text>
</g>
<!-- ch10&#45;change&#45;detection&#45;&gt;ch11&#45;commands -->
<g id="edge16" class="edge">
<title>ch10&#45;change&#45;detection&#45;&gt;ch11&#45;commands</title>
<path fill="none" stroke="red" stroke-width="2" d="M2313.73,-18C2321.27,-18 2328.91,-18 2336.52,-18"/>
<polygon fill="red" stroke="red" stroke-width="2" points="2346.41,-18 2336.41,-22.5 2343.85,-18.5 2336.41,-18.5 2336.41,-18 2336.41,-17.5 2343.85,-17.5 2336.41,-13.5 2346.41,-18"/>
</g>
<!-- ch06&#45;archetype&#45;&gt;ch07&#45;query -->
<g id="edge14" class="edge">
<title>ch06&#45;archetype&#45;&gt;ch07&#45;query</title>
<path fill="none" stroke="red" stroke-width="2" d="M1343.41,-18C1351.18,-18 1359.01,-18 1366.79,-18"/>
<polygon fill="red" stroke="red" stroke-width="2" points="1376.52,-18 1366.52,-22.5 1373.95,-18.5 1366.52,-18.5 1366.52,-18 1366.52,-17.5 1373.95,-17.5 1366.52,-13.5 1376.52,-18"/>
</g>
<!-- ch04&#45;entity -->
<g id="node27" class="node">
<title>ch04&#45;entity</title>
<polygon fill="none" stroke="black" points="794.5,-36 609.75,-36 609.75,0 794.5,0 794.5,-36"/>
<text xml:space="preserve" text-anchor="middle" x="702.12" y="-21.43" font-family="Helvetica,sans-Serif" font-size="11.00">第 4 章：Entity — 轻量级身份标识</text>
<text xml:space="preserve" text-anchor="middle" x="702.12" y="-5.67" font-family="Helvetica,sans-Serif" font-size="11.00">[0.5d]</text>
</g>
<!-- ch03&#45;world&#45;&gt;ch04&#45;entity -->
<g id="edge25" class="edge">
<title>ch03&#45;world&#45;&gt;ch04&#45;entity</title>
<path fill="none" stroke="red" stroke-width="2" d="M574.08,-18C581.67,-18 589.38,-18 597.06,-18"/>
<polygon fill="red" stroke="red" stroke-width="2" points="607.05,-18 597.05,-22.5 604.48,-18.5 597.05,-18.5 597.05,-18 597.05,-17.5 604.48,-17.5 597.05,-13.5 607.05,-18"/>
</g>
<!-- ch14&#45;render -->
<g id="node22" class="node">
<title>ch14&#45;render</title>
<polygon fill="none" stroke="black" points="3467,-36 3216.25,-36 3216.25,0 3467,0 3467,-36"/>
<text xml:space="preserve" text-anchor="middle" x="3341.62" y="-21.43" font-family="Helvetica,sans-Serif" font-size="11.00">第 14 章：渲染架构 — 双 World 与 Extract 模式</text>
<text xml:space="preserve" text-anchor="middle" x="3341.62" y="-5.67" font-family="Helvetica,sans-Serif" font-size="11.00">[1d]</text>
</g>
<!-- ch14&#45;render&#45;&gt;ch15&#45;transform -->
<g id="edge12" class="edge">
<title>ch14&#45;render&#45;&gt;ch15&#45;transform</title>
<path fill="none" stroke="red" stroke-width="2" d="M3467.45,-18C3475.14,-18 3482.77,-18 3490.21,-18"/>
<polygon fill="red" stroke="red" stroke-width="2" points="3500.08,-18 3490.08,-22.5 3497.52,-18.5 3490.08,-18.5 3490.08,-18 3490.08,-17.5 3497.52,-17.5 3490.08,-13.5 3500.08,-18"/>
</g>
<!-- ch13&#45;relationship&#45;&gt;ch14&#45;render -->
<g id="edge20" class="edge">
<title>ch13&#45;relationship&#45;&gt;ch14&#45;render</title>
<path fill="none" stroke="red" stroke-width="2" d="M3180.55,-18C3188.35,-18 3196.18,-18 3203.97,-18"/>
<polygon fill="red" stroke="red" stroke-width="2" points="3213.73,-18 3203.73,-22.5 3211.17,-18.5 3203.73,-18.5 3203.73,-18 3203.73,-17.5 3211.17,-17.5 3203.73,-13.5 3213.73,-18"/>
</g>
<!-- ch17&#45;input&#45;&gt;ch18&#45;state -->
<g id="edge15" class="edge">
<title>ch17&#45;input&#45;&gt;ch18&#45;state</title>
<path fill="none" stroke="red" stroke-width="2" d="M3955.52,-18C3963.03,-18 3970.79,-18 3978.48,-18"/>
<polygon fill="red" stroke="red" stroke-width="2" points="3988.44,-18 3978.44,-22.5 3985.88,-18.5 3978.44,-18.5 3978.44,-18 3978.44,-17.5 3985.88,-17.5 3978.44,-13.5 3988.44,-18"/>
</g>
<!-- ch23&#45;concurrency&#45;&gt;ch24&#45;diagnostics -->
<g id="edge2" class="edge">
<title>ch23&#45;concurrency&#45;&gt;ch24&#45;diagnostics</title>
<path fill="none" stroke="red" stroke-width="2" d="M4994.5,-18C5001.93,-18 5009.65,-18 5017.33,-18"/>
<polygon fill="red" stroke="red" stroke-width="2" points="5027.3,-18 5017.3,-22.5 5024.74,-18.5 5017.3,-18.5 5017.3,-18 5017.3,-17.5 5024.74,-17.5 5017.3,-13.5 5027.3,-18"/>
</g>
<!-- ch08&#45;system&#45;&gt;ch09&#45;schedule -->
<g id="edge4" class="edge">
<title>ch08&#45;system&#45;&gt;ch09&#45;schedule</title>
<path fill="none" stroke="red" stroke-width="2" d="M1829.94,-18C1837.62,-18 1845.42,-18 1853.22,-18"/>
<polygon fill="red" stroke="red" stroke-width="2" points="1863.02,-18 1853.02,-22.5 1860.46,-18.5 1853.02,-18.5 1853.02,-18 1853.02,-17.5 1860.46,-17.5 1853.02,-13.5 1863.02,-18"/>
</g>
<!-- ch04&#45;entity&#45;&gt;ch05&#45;component&#45;storage -->
<g id="edge1" class="edge">
<title>ch04&#45;entity&#45;&gt;ch05&#45;component&#45;storage</title>
<path fill="none" stroke="red" stroke-width="2" d="M794.89,-18C802.49,-18 810.26,-18 818.09,-18"/>
<polygon fill="red" stroke="red" stroke-width="2" points="827.98,-18 817.98,-22.5 825.42,-18.5 817.98,-18.5 817.98,-18 817.98,-17.5 825.42,-17.5 817.98,-13.5 827.98,-18"/>
</g>
</g>
</svg>
